<svg width="99" height="18" viewBox="0 0 99 18" fill="none" xmlns="http://www.w3.org/2000/svg">
<path d="M29.0436 7.8136C31.3857 6.86466 32.2539 5.58259 32.2539 3.99766C32.2539 1.2316 29.8412 0 25.8839 0H18.8072C19.2514 0.676371 19.6754 1.40322 19.6754 2.49349V7.98522C17.5958 8.39912 15.7282 8.75245 13.9717 9.17644C12.3968 4.83555 10.6403 0 10.6403 0H6.23883C6.30949 0.605706 6.24892 1.25179 5.92588 2.13007L0.999475 15.8594C0.999475 15.8594 0.676432 16.8285 6.10352e-05 17.6967H3.60401C3.53334 17.2222 3.6242 16.5963 3.74534 16.2127C4.10876 15.1325 5.08799 14.4158 6.12778 13.9514C7.48053 13.3356 9.83268 12.5987 10.9431 12.2655L12.1142 15.6171C12.1142 15.6171 12.5886 16.879 12.3363 17.6967H17.4242C16.657 16.6569 16.3945 15.8796 16.3945 15.8594C16.2734 15.5364 15.6071 13.6789 14.749 11.3368C16.3036 10.9633 17.929 10.6503 19.6754 10.3071V15.183C19.6754 16.1219 19.2918 16.9497 18.8072 17.6866H25.5306C26.6309 17.6866 27.6101 17.626 28.3471 17.4948C31.2343 16.99 33.3038 15.5162 33.3038 12.3766C33.3139 9.97395 31.6987 8.54045 29.0436 7.8136ZM6.3095 11.468C5.8855 11.6699 5.34037 12.0031 5.02742 12.316C5.99655 9.48939 7.3291 5.60278 7.97519 3.76547L10.1961 10.1052C9.07555 10.4282 7.34929 10.9734 6.3095 11.468ZM23.6024 2.21083C24.299 2.17045 24.5513 2.17045 25.0056 2.17045C27.1761 2.17045 28.1856 3.079 28.1856 4.36108C28.1856 5.58259 27.378 6.33972 26.0353 6.74352C25.47 6.91514 24.5311 7.10695 23.6024 7.26847V2.21083ZM25.2378 15.496H23.6125V9.60044C24.2182 9.4591 25.1873 9.28749 25.8233 9.21682C27.7818 9.6711 29.2254 10.4787 29.2254 12.4775C29.2153 14.8095 27.5092 15.496 25.2378 15.496Z" fill="#706A63"/>
<path d="M35.1309 17.6964C35.9991 16.3941 35.9991 15.213 35.9991 15.1928V2.51335C35.9991 2.49316 35.9991 1.32213 35.1309 0.00976562H40.8145C39.9463 1.32213 39.9463 2.49316 39.9463 2.51335V15.1928C39.9463 15.213 39.9463 16.3941 40.8145 17.6964H35.1309Z" fill="#706A63"/>
<path d="M98.7482 5.23853H94.9424C95.2654 5.76347 95.1342 6.60136 94.801 7.44935L92.3378 14.0213L89.7838 7.44935C89.4405 6.60136 89.3194 5.76347 89.6424 5.23853H84.7261C85.4025 5.95528 85.8265 6.87393 86.0688 7.44935L90.2986 17.6959H93.5896C93.5896 17.6959 93.6704 16.858 94.0439 15.9191L97.446 7.44935C97.6781 6.86384 98.1627 5.85433 98.7482 5.23853Z" fill="#706A63"/>
<path d="M85.2344 11.8318C85.4767 9.22728 84.7599 4.69458 79.0057 4.69458C74.3115 4.69458 72.5853 7.96539 72.5853 11.1554C72.5853 15.2137 74.7961 17.9999 80.0859 17.9999C82.2362 17.9999 83.9725 17.3639 85.0022 16.738L83.9422 14.396C82.9428 14.9007 81.7213 15.3449 80.3585 15.3449C77.9962 15.3449 76.5425 14.5171 76.2296 12.175H81.3377C83.2154 12.1851 84.7398 12.0741 85.2344 11.8318ZM76.2397 10.0349C76.4719 8.02596 77.3703 7.00636 79.0057 7.00636C80.7017 7.00636 81.5396 8.31872 81.6103 10.0147C81.6103 10.0147 80.8632 10.0349 79.8941 10.0349H76.2397Z" fill="#706A63"/>
<path d="M50.5342 17.6973H55.5716C54.8044 16.5464 54.8044 15.4965 54.8044 15.4864V8.83378C54.8044 6.45134 53.5223 4.98755 50.8169 4.98755C49.0906 4.98755 47.6672 5.76487 46.6173 6.71381V5.23993H42.337C43.1042 6.40086 43.1042 7.44066 43.1042 7.45075V15.4764C43.1042 15.4965 43.1042 16.5363 42.337 17.6872H47.3845C46.6173 16.5363 46.6173 15.4864 46.6173 15.4764V8.83378C47.2634 8.1675 48.182 7.68294 49.1915 7.68294C50.7361 7.68294 51.3014 8.54102 51.3014 9.87357V15.4764C51.3014 15.4965 51.3014 16.5363 50.5342 17.6973Z" fill="#706A63"/>
<path d="M63.5911 9.34748C66.0745 9.34748 67.4374 10.5589 67.4374 12.5173C67.4374 14.2739 66.3875 15.556 63.5306 15.556H61.8245V9.34748H63.5911ZM63.2176 2.14968C65.3881 2.14968 66.3976 2.99767 66.3976 4.59269C66.3976 6.17762 65.489 7.12656 63.3993 7.12656C62.9955 7.12656 62.2586 7.13666 61.8245 7.12656V2.14968H63.2176ZM63.6719 17.6961C64.7723 17.6961 65.7919 17.6356 66.5288 17.5043C69.3655 17.0097 71.4653 15.556 71.4653 12.4265C71.4653 9.91281 69.8602 8.61054 67.3364 7.8837C69.5977 7.02561 70.3549 5.79401 70.3549 4.18889C70.3549 1.42283 68.1037 0.00952148 64.0454 0.00952148H57.2615C57.736 0.726273 57.8975 1.76607 57.8975 2.51311V15.1925C57.8975 16.0203 57.7461 16.8885 57.2615 17.6961H63.6719Z" fill="#706A63"/>
</svg>
