<svg width="87" height="26" viewBox="0 0 87 26" fill="none" xmlns="http://www.w3.org/2000/svg">
<path d="M0.748352 18.3911V0.380615H3.91209V18.391L0.748352 18.3911ZM12.0106 5.32517C7.95428 5.32517 5.1472 8.44398 5.1472 12.0138C5.1472 15.9979 8.20094 18.7424 12.0421 18.7424C15.6876 18.7424 18.851 16.0483 18.851 12.0052C18.851 8.60524 16.2297 5.32517 12.0105 5.32517H12.0106ZM11.9733 8.37719C14.0961 8.37719 15.6586 10.0296 15.6586 12.0252C15.6586 14.1412 13.9359 15.6847 12.0306 15.6847C9.77933 15.6847 8.36255 13.9004 8.36255 12.0309C8.36255 9.98182 9.96212 8.37719 11.9733 8.37719ZM26.7999 5.32517C22.7435 5.32517 19.9365 8.44398 19.9365 12.0138C19.9365 15.9979 22.9903 18.7424 26.8314 18.7424C30.4769 18.7424 33.6403 16.0483 33.6403 12.0052C33.6403 9.6243 32.6092 8.56778 32.6092 8.56778L33.4861 8.2671V5.69941H28.9927C28.9927 5.69941 28.0186 5.32525 26.7999 5.32525V5.32517ZM26.7627 8.37719C28.8855 8.37719 30.4479 10.0296 30.4479 12.0252C30.4479 14.1412 28.7252 15.6847 26.8199 15.6847C24.5687 15.6847 23.1518 13.9004 23.1518 12.0309C23.1518 9.98182 24.7515 8.37719 26.7627 8.37719ZM30.4255 19.2714C30.4255 21.3873 28.7029 22.9423 26.7975 22.9423C24.5463 22.9423 23.1238 21.1409 23.1238 19.2714H19.9142C19.9142 23.2555 22.9679 26.0001 26.809 26.0001C30.4545 26.0001 33.6179 23.3146 33.6179 19.2714H30.4255ZM34.9075 18.3911V5.69941H38.0712V18.391L34.9075 18.3911ZM41.1433 18.3911V8.54223H39.4468V5.69941H41.1433V1.80211H44.3069V5.69941H46.0494V8.54223H44.307V18.391L41.1433 18.3911Z" fill="#706A63"/>
<path d="M36.4827 4.18995C37.6398 4.18995 38.5777 3.252 38.5777 2.09498C38.5777 0.937953 37.6398 0 36.4827 0C35.3257 0 34.3878 0.937953 34.3878 2.09498C34.3878 3.252 35.3257 4.18995 36.4827 4.18995Z" fill="#706A63"/>
<path d="M53.1607 5.31722C49.0851 5.31722 46.4578 8.43765 46.4578 12.129C46.4578 15.9437 49.0939 18.7517 53.2267 18.7517C57.0817 18.7517 58.9781 16.3445 58.9781 16.3445L56.8631 14.2267C56.8631 14.2267 55.2663 15.949 53.2667 15.949C51.5998 15.949 50.2671 15.0187 49.8021 13.3126H59.66V12.4413C59.66 8.96528 57.6481 5.31722 53.1606 5.31722H53.1607ZM53.0604 8.10277C54.5178 8.10277 56.0083 8.88237 56.3415 10.7449H49.7161C49.9785 9.43571 51.1239 8.10269 53.0603 8.10269L53.0604 8.10277ZM67.5735 18.7533C63.4865 18.7533 60.7016 15.6404 60.7016 11.9701C60.7016 8.1825 63.849 5.31481 67.5605 5.31481C71.1483 5.31481 72.9848 7.84771 72.9848 7.84771L70.7778 10.0446C70.7778 10.0446 69.4994 8.3929 67.5454 8.3929C65.3797 8.3929 63.899 10.0495 63.899 12.0188C63.899 14.098 65.4742 15.6934 67.521 15.6934C69.5065 15.6934 70.7747 14.0442 70.7747 14.0442L73.0038 16.24C73.0038 16.24 71.1851 18.7533 67.5735 18.7533ZM74.1549 18.4008V0.335449H77.3185V6.97277C77.3185 6.97277 78.5299 5.31481 81.165 5.31481C84.4779 5.31481 86.3971 7.77749 86.3971 10.9271V18.4008H83.2333V11.4052C83.2333 9.28927 81.9159 8.41134 80.4565 8.41134C78.7938 8.41134 77.3186 9.35769 77.3186 11.569V18.4008H74.1549Z" fill="#706A63"/>
</svg>
