<svg width="91" height="18" viewBox="0 0 91 18" fill="none" xmlns="http://www.w3.org/2000/svg">
<path d="M52.9617 0.000157548C52.6618 0.00177562 52.3621 0.0154657 52.0635 0.0411905C48.9651 0.307655 46.7605 1.73583 46.1796 3.85326C46.0369 4.37319 46.0364 5.48834 46.1786 6.00378C46.3596 6.66049 46.7634 7.30208 47.3497 7.86445C48.3171 8.79243 49.4773 9.39211 52.4724 10.512C54.5049 11.272 55.1026 11.5514 55.5038 11.9287C55.863 12.2666 56.0115 12.7314 55.893 13.1474C55.7457 13.6643 55.0667 14.1256 54.1943 14.3015C53.575 14.4263 52.3623 14.3968 51.7191 14.2414C50.5756 13.965 49.4317 13.3138 48.49 12.4029C48.2365 12.1577 47.9891 11.9573 47.9398 11.9573C47.8096 11.9573 45.0427 14.0307 45.0147 14.1494C44.9862 14.2698 45.4522 14.869 45.9943 15.409C47.2712 16.6808 49.459 17.6863 51.4922 17.9359C51.7379 17.9661 52.3879 17.9947 52.9368 17.9994C55.6087 18.0222 57.5256 17.4037 58.9486 16.0597C59.9476 15.1162 60.3702 14.1464 60.3681 12.8035C60.3661 11.5442 60.0005 10.6708 59.1246 9.8335C58.1214 8.8744 56.9854 8.29429 54.0022 7.21762C51.3935 6.27604 50.7487 5.90831 50.556 5.25271C50.4624 4.93399 50.4624 4.79462 50.556 4.47589C50.917 3.24765 53.3049 2.88437 55.1403 3.7784C55.5675 3.98643 55.8654 4.20257 56.334 4.64489C56.6774 4.96901 56.976 5.23426 56.9976 5.23426C57.0559 5.23426 59.6724 3.55437 59.8231 3.42014C59.9478 3.30904 59.9394 3.28825 59.6074 2.87443C59.0864 2.22504 58.9553 2.09452 58.3954 1.6676C56.9621 0.574899 55.0383 -0.00988242 52.9618 0.000126368L52.9617 0.000157548ZM21.5261 0.31863V17.7389H25.865L25.8831 10.8311L25.9013 3.9232L27.7866 3.90368C28.8736 3.89252 29.9246 3.91556 30.2691 3.95803C31.2501 4.07897 31.9994 4.48051 32.3186 5.05644C32.4942 5.37322 32.5278 6.27866 32.3797 6.7C32.0398 7.6668 30.8149 8.27216 29.0342 8.35347C28.6201 8.37237 28.2499 8.40626 28.2116 8.42862C28.1696 8.45313 28.1423 9.07779 28.1423 10.0066V11.5439L28.978 12.5432C29.4378 13.0928 30.3901 14.2345 31.0944 15.0801C31.7987 15.9257 32.5848 16.8623 32.841 17.1615L33.3068 17.7054L35.9177 17.723C37.8144 17.7359 38.5287 17.7199 38.5287 17.665C38.5287 17.5921 38.1078 17.0806 34.5945 12.8869C33.7064 11.8268 32.9798 10.9346 32.9802 10.9038C32.9805 10.8731 33.1912 10.7421 33.4482 10.6132C34.8636 9.90259 35.9104 8.69277 36.3233 7.28986C36.4629 6.8153 36.4764 6.64288 36.4468 5.70997C36.4185 4.81816 36.386 4.58294 36.2281 4.1249C35.7277 2.67409 34.5513 1.51055 32.9621 0.894681C32.7175 0.799894 32.1971 0.642591 31.8058 0.545029L31.0944 0.367458L26.3104 0.342982L21.5261 0.31863ZM9.21005 0.326425L8.60151 1.51972C8.26675 2.17606 7.76851 3.15177 7.49449 3.68791C7.20269 4.25899 6.91163 4.83042 6.62134 5.40219C6.41513 5.80897 5.88745 6.83747 5.44857 7.68794C5.00972 8.5384 4.52599 9.48191 4.37376 9.78439C4.22152 10.0869 3.2647 11.9609 2.24723 13.9489C1.22973 15.937 0.397156 17.6031 0.397156 17.6513C0.397156 17.7217 0.862272 17.7389 2.74765 17.7389H5.09811L5.95641 16.0751C6.71072 14.6127 8.1003 11.764 9.89369 8.00382C10.1989 7.36395 10.4728 6.86475 10.5025 6.8945C10.5322 6.92428 10.8681 7.61413 11.2488 8.42762C11.6296 9.24111 12.2286 10.4816 12.5803 11.1841C12.932 11.8867 13.341 12.7035 13.489 12.9993C13.7714 13.5639 15.5891 17.1563 15.7682 17.5037L15.8722 17.7054L18.1789 17.723C19.4475 17.7328 20.5099 17.7178 20.5398 17.6895C20.5697 17.6612 20.3235 17.1127 19.9929 16.4705C19.6623 15.8282 19.3918 15.2951 19.3918 15.2857C19.3918 15.2764 19.0524 14.6069 18.6375 13.7979C18.2227 12.9889 17.106 10.7992 16.1558 8.93193C15.2057 7.06459 13.9401 4.58356 13.3437 3.41883C12.7474 2.25407 12.1515 1.08195 12.0197 0.813863L11.7801 0.326394H10.495L9.21005 0.326425ZM79.0697 0.326425L78.284 1.85587C77.741 2.91403 77.1996 3.97292 76.6598 5.03252C75.4308 7.44592 74.821 8.6379 73.53 11.1503C72.8934 12.389 72.2366 13.6749 72.0703 14.0077C71.904 14.3405 71.428 15.2742 71.0128 16.0826C70.5975 16.891 70.2576 17.5943 70.2576 17.6456C70.2576 17.7233 70.65 17.7389 72.6037 17.7389H74.9498L75.7767 16.1421C76.2316 15.2639 76.7573 14.2278 76.9448 13.8395C77.1322 13.4513 77.3889 12.9219 77.5151 12.6631C77.6412 12.4043 78.2082 11.2242 78.775 10.041C79.3419 8.85772 79.9193 7.65411 80.0584 7.36607C80.1975 7.07805 80.3337 6.86634 80.3607 6.89553C80.3878 6.92471 80.7072 7.58373 81.0708 8.36024C81.76 9.83212 82.3768 11.0902 83.3285 12.9657C83.6381 13.5758 84.2243 14.7406 84.6311 15.5541C85.038 16.3676 85.4518 17.1843 85.5508 17.3692L85.7307 17.7054L88.0383 17.723C89.3074 17.7328 90.3687 17.7177 90.3967 17.6895C90.4379 17.6479 87.5437 11.9001 83.8878 4.76341C83.1448 3.313 81.8821 0.839898 81.7337 0.544748L81.624 0.326363H80.347L79.0697 0.326425ZM72.2298 0.338149C71.2291 0.337837 69.9905 0.339708 68.4667 0.34267L60.8315 0.359975V3.85588L62.6634 3.87384L64.4953 3.8918V10.7705C64.4953 14.5538 64.5171 17.6698 64.5438 17.695C64.5704 17.7202 65.5548 17.7329 66.7314 17.7231L68.8706 17.7055L68.8885 10.7976L68.9066 3.88974H74.2411L75.1476 2.19208C75.6462 1.25843 76.0649 0.456602 76.078 0.410206C76.0922 0.359694 75.2321 0.339427 72.2298 0.33818V0.338149ZM39.4891 0.359975L39.4696 8.89813C39.4588 13.5942 39.4676 17.5049 39.4891 17.5887L39.5279 17.741L41.5717 17.723L43.6154 17.7054V0.359975H41.5521H39.4891ZM10.5002 11.9061C10.4941 11.9046 10.4875 11.9049 10.4815 11.907C10.4004 11.9326 8.52546 15.7537 8.45792 16.0313C8.4371 16.1167 8.57901 16.4811 8.81775 16.9558L9.2117 17.7391H11.2384C12.3531 17.7391 13.2808 17.7151 13.3 17.6858C13.3191 17.6565 12.7578 16.439 12.0524 14.9799C11.347 13.5209 10.7235 12.2266 10.667 12.1038C10.6175 11.9964 10.5475 11.9153 10.5002 11.9062V11.9061ZM80.3552 11.9235C80.2602 11.9235 78.2966 15.9295 78.2966 16.1234C78.2966 16.1875 78.4718 16.5772 78.6859 16.9894L79.0752 17.7389H81.1005C82.2144 17.7389 83.14 17.7162 83.1574 17.6885C83.1924 17.6325 83.118 17.4722 81.5453 14.2095C80.9393 12.9523 80.4038 11.9235 80.3552 11.9235Z" fill="#706A63"/>
</svg>
